<?xml version="1.0" encoding="UTF-8" standalone="no"?>
<svg
   xmlns:dc="http://purl.org/dc/elements/1.1/"
   xmlns:cc="http://creativecommons.org/ns#"
   xmlns:rdf="http://www.w3.org/1999/02/22-rdf-syntax-ns#"
   xmlns:svg="http://www.w3.org/2000/svg"
   xmlns="http://www.w3.org/2000/svg"
   id="svg8"
   version="1.1"
   viewBox="0 0 26.458334 26.458335"
   height="100"
   width="100">
  <defs
     id="defs2" />
  <metadata
     id="metadata5">
    <rdf:RDF>
      <cc:Work
         rdf:about="">
        <dc:format>image/svg+xml</dc:format>
        <dc:type
           rdf:resource="http://purl.org/dc/dcmitype/StillImage" />
        <dc:title></dc:title>
      </cc:Work>
    </rdf:RDF>
  </metadata>
  <g
     transform="translate(0,-270.54164)"
     id="layer1">
    <path
       id="path10"
       d="M 13.229167,270.54164 A 13.229166,13.229166 0 0 0 4.9999997e-8,283.7708 13.229166,13.229166 0 0 0 13.229167,296.99997 13.229166,13.229166 0 0 0 26.458334,283.7708 13.229166,13.229166 0 0 0 13.229167,270.54164 Z m 0,1.88988 A 11.339285,11.339285 0 0 1 24.568453,283.7708 11.339285,11.339285 0 0 1 13.229167,295.11009 11.339285,11.339285 0 0 1 1.889881,283.7708 11.339285,11.339285 0 0 1 13.229167,272.43152 Z m -6.6741036,4.65734 a 9.4494054,9.4494054 0 0 0 -0.00784,0.009 v 13.34683 a 9.4494054,9.4494054 0 0 0 2.6728712,1.8705 v -12.553 H 21.774696 a 9.4494054,9.4494054 0 0 0 -1.87281,-2.67333 z m 8.0103086,8.01815 v 8.00846 a 9.4494054,9.4494054 0 0 0 8.006617,-8.00846 z"
       style="opacity:1;fill:#000000;fill-opacity:1;stroke:none;stroke-width:0.31795421;stroke-miterlimit:4;stroke-dasharray:none;stroke-opacity:1" />
  </g>
</svg>
